<svg xmlns="http://www.w3.org/2000/svg" xmlns:xlink="http://www.w3.org/1999/xlink" viewBox="0 0 1228.94 268.57"><defs><linearGradient id="a" x1="209.67" y1="-21.2" x2="100.43" y2="236.1" gradientUnits="userSpaceOnUse"><stop offset=".13" stop-color="#ffa00d"/><stop offset="1" stop-color="#e0001b"/></linearGradient><linearGradient id="b" x1="167.55" y1="-39.08" x2="58.31" y2="218.22" xlink:href="#a"/><linearGradient id="c" x1="199.23" y1="-25.63" x2="90" y2="231.68" xlink:href="#a"/></defs><path fill="url('#a')" d="M124.05 161.14h62.02l31.01-53.71H93.04l31.01 53.71z"/><path fill="url('#b')" d="M31.01 0 0 53.71l31.01 53.72h.01l31.01-53.72H248.1L279.11 0H31.01z"/><path fill="url('#c')" d="m93.04 214.86 31.01 53.71 31.01-53.71-31.01-53.72H62.03l31.01 53.72z"/><path d="M353.54 78.32v25.59h84V78.32Zm26.5 56h-26.5v78.52H380V160h49.88v-25.58H380ZM485.1 78.32v134.49h26.49V78.32ZM559.1 78.32v25.59h31.42v108.9H617v-108.9h32.7V78.32ZM791.7 78.32l.53 81L698.33 73h-1.1v139.81h26.86l-.53-79.5 94.08 85h.73v-140ZM901.51 187.22v-29.05h57.74v-25.58h-57.74v-28.68h65.23V78.32H875v134.49h94.3v-25.59ZM1089.16 148.21a43.83 43.83 0 0 0-10.32-7.49 102.55 102.55 0 0 0-11.61-5.2 133.73 133.73 0 0 1-12.33-5.3 35.92 35.92 0 0 1-9.68-6.67 11.72 11.72 0 0 1-3.75-8.5q0-6.94 4.93-10.41t13.53-3.48a45.8 45.8 0 0 1 14.89 2.75 100.7 100.7 0 0 1 15.62 6.94l10-20.28a92.49 92.49 0 0 0-18.18-9.14q-10.14-3.84-26.4-3.84a51.19 51.19 0 0 0-21.86 5.58 36.9 36.9 0 0 0-14.71 13.61q-5.21 8.59-5.21 20.28 0 9.69 3.57 16.35a34.48 34.48 0 0 0 9.31 11.15 65.43 65.43 0 0 0 12.34 7.58q6.57 3.12 12.79 5.48a59.42 59.42 0 0 1 9.77 4.75 27.3 27.3 0 0 1 7.13 6 11.4 11.4 0 0 1 2.65 7.3q0 5.85-3.2 9.14a17.65 17.65 0 0 1-8 4.66 35.21 35.21 0 0 1-9.59 1.37 42.18 42.18 0 0 1-10.42-1.46 63.43 63.43 0 0 1-11.23-4.11 64.64 64.64 0 0 1-10.33-6.12l-11.69 20.64a80.32 80.32 0 0 0 30.42 12.88 81 81 0 0 0 15.63 1.56q15 0 25.21-5.39a38.64 38.64 0 0 0 15.53-14.16 36.12 36.12 0 0 0 5.3-19 43.06 43.06 0 0 0-2.74-16.35 33 33 0 0 0-7.37-11.12ZM1217.61 148.21a43.83 43.83 0 0 0-10.32-7.49 102.55 102.55 0 0 0-11.61-5.2 133.73 133.73 0 0 1-12.33-5.3 35.92 35.92 0 0 1-9.68-6.67 11.72 11.72 0 0 1-3.75-8.5q0-6.94 4.93-10.41t13.53-3.48a45.8 45.8 0 0 1 14.89 2.75 100.7 100.7 0 0 1 15.62 6.94l10-20.28a92.49 92.49 0 0 0-18.18-9.14q-10.14-3.84-26.4-3.84a51.19 51.19 0 0 0-21.93 5.58 36.9 36.9 0 0 0-14.71 13.61q-5.21 8.59-5.21 20.28 0 9.69 3.57 16.35a34.48 34.48 0 0 0 9.31 11.15 65.43 65.43 0 0 0 12.34 7.58q6.57 3.12 12.79 5.48a59.42 59.42 0 0 1 9.77 4.75 27.3 27.3 0 0 1 7.13 6 11.4 11.4 0 0 1 2.65 7.3q0 5.85-3.2 9.14a17.65 17.65 0 0 1-8 4.66 35.21 35.21 0 0 1-9.59 1.37 42.18 42.18 0 0 1-10.42-1.46 63.43 63.43 0 0 1-11.23-4.11 64.64 64.64 0 0 1-10.33-6.12l-11.69 20.64a80.32 80.32 0 0 0 30.44 12.92 81 81 0 0 0 15.63 1.56q15 0 25.21-5.39a38.64 38.64 0 0 0 15.53-14.16 36.12 36.12 0 0 0 5.3-19 43.06 43.06 0 0 0-2.74-16.35 33 33 0 0 0-7.32-11.16Z" fill="#203a57"/></svg>