<?xml version="1.0" encoding="UTF-8" standalone="no"?>
<!-- Created with Inkscape (http://www.inkscape.org/) -->

<svg
   width="793.70081"
   height="1122.5197"
   viewBox="0 0 210 296.99999"
   version="1.1"
   id="svg1"
   inkscape:version="1.3.2 (091e20e, 2023-11-25)"
   sodipodi:docname="testi2.svg"
   xmlns:inkscape="http://www.inkscape.org/namespaces/inkscape"
   xmlns:sodipodi="http://sodipodi.sourceforge.net/DTD/sodipodi-0.dtd"
   xmlns:xlink="http://www.w3.org/1999/xlink"
   xmlns="http://www.w3.org/2000/svg"
   xmlns:svg="http://www.w3.org/2000/svg"
   xmlns:rdf="http://www.w3.org/1999/02/22-rdf-syntax-ns#"
   xmlns:cc="http://creativecommons.org/ns#"
   xmlns:dc="http://purl.org/dc/elements/1.1/">
  <sodipodi:namedview
     id="base"
     pagecolor="#ffffff"
     bordercolor="#000000"
     borderopacity="0.3"
     inkscape:pageopacity="0.0"
     inkscape:pageshadow="2"
     inkscape:zoom="1"
     inkscape:cx="401.5"
     inkscape:cy="560"
     inkscape:document-units="px"
     inkscape:showpageshadow="2"
     inkscape:pagecheckerboard="0"
     inkscape:deskcolor="#d1d1d1"
     showborder="false"
     inkscape:window-width="1920"
     inkscape:window-height="1027"
     inkscape:window-x="1441"
     inkscape:window-y="25"
     inkscape:window-maximized="0"
     inkscape:current-layer="svg1" />
  <defs
     id="defs1">
    <linearGradient
       id="linearGradient1308"
       inkscape:collect="always">
      <stop
         style="stop-color:#ff2a7f;stop-opacity:1;"
         offset="0"
         id="stop1308" />
      <stop
         style="stop-color:#5599ff;stop-opacity:1"
         offset="1"
         id="stop1309" />
    </linearGradient>
    <inkscape:path-effect
       effect="spiro"
       id="path-effect1069"
       is_visible="true"
       lpeversion="1" />
    <inkscape:path-effect
       effect="simplify"
       id="path-effect1068"
       is_visible="true"
       lpeversion="1.3"
       threshold="142.857"
       steps="1"
       smooth_angles="360"
       helper_size="0"
       simplify_individual_paths="false"
       simplify_just_coalesce="false" />
    <inkscape:path-effect
       effect="spiro"
       id="path-effect1067"
       is_visible="true"
       lpeversion="1" />
    <inkscape:path-effect
       effect="simplify"
       id="path-effect1066"
       is_visible="true"
       lpeversion="1.3"
       threshold="142.857"
       steps="1"
       smooth_angles="360"
       helper_size="0"
       simplify_individual_paths="false"
       simplify_just_coalesce="false" />
    <inkscape:path-effect
       effect="spiro"
       id="path-effect627"
       is_visible="true"
       lpeversion="1" />
    <inkscape:path-effect
       effect="simplify"
       id="path-effect626"
       is_visible="true"
       lpeversion="1.3"
       threshold="142.857"
       steps="1"
       smooth_angles="360"
       helper_size="0"
       simplify_individual_paths="false"
       simplify_just_coalesce="false" />
    <inkscape:path-effect
       effect="spiro"
       id="path-effect399"
       is_visible="true"
       lpeversion="1" />
    <inkscape:path-effect
       effect="simplify"
       id="path-effect398"
       is_visible="true"
       lpeversion="1.3"
       threshold="142.857"
       steps="1"
       smooth_angles="360"
       helper_size="0"
       simplify_individual_paths="false"
       simplify_just_coalesce="false" />
    <inkscape:path-effect
       effect="spiro"
       id="path-effect397"
       is_visible="true"
       lpeversion="1" />
    <inkscape:path-effect
       effect="simplify"
       id="path-effect396"
       is_visible="true"
       lpeversion="1.3"
       threshold="142.857"
       steps="1"
       smooth_angles="360"
       helper_size="0"
       simplify_individual_paths="false"
       simplify_just_coalesce="false" />
    <inkscape:path-effect
       effect="spiro"
       id="path-effect2"
       is_visible="true"
       lpeversion="1" />
    <inkscape:path-effect
       effect="simplify"
       id="path-effect1"
       is_visible="true"
       lpeversion="1.3"
       threshold="142.857"
       steps="1"
       smooth_angles="360"
       helper_size="0"
       simplify_individual_paths="false"
       simplify_just_coalesce="false" />
    <linearGradient
       inkscape:collect="always"
       xlink:href="#linearGradient1308"
       id="linearGradient1309"
       x1="27.368195"
       y1="145.25185"
       x2="176.81055"
       y2="145.25185"
       gradientUnits="userSpaceOnUse" />
    <linearGradient
       inkscape:collect="always"
       xlink:href="#linearGradient1308"
       id="linearGradient1310"
       gradientUnits="userSpaceOnUse"
       x1="27.368195"
       y1="145.25185"
       x2="176.81055"
       y2="145.25185" />
    <linearGradient
       inkscape:collect="always"
       xlink:href="#linearGradient1308"
       id="linearGradient1311"
       gradientUnits="userSpaceOnUse"
       x1="27.368195"
       y1="145.25185"
       x2="176.81055"
       y2="145.25185" />
    <linearGradient
       inkscape:collect="always"
       xlink:href="#linearGradient1308"
       id="linearGradient1312"
       gradientUnits="userSpaceOnUse"
       x1="27.368195"
       y1="145.25185"
       x2="176.81055"
       y2="145.25185" />
    <linearGradient
       inkscape:collect="always"
       xlink:href="#linearGradient1308"
       id="linearGradient1313"
       gradientUnits="userSpaceOnUse"
       x1="27.368195"
       y1="145.25185"
       x2="176.81055"
       y2="145.25185" />
    <linearGradient
       inkscape:collect="always"
       xlink:href="#linearGradient1308"
       id="linearGradient1314"
       gradientUnits="userSpaceOnUse"
       x1="27.368195"
       y1="145.25185"
       x2="176.81055"
       y2="145.25185" />
    <linearGradient
       inkscape:collect="always"
       xlink:href="#linearGradient1308"
       id="linearGradient1315"
       gradientUnits="userSpaceOnUse"
       x1="27.368195"
       y1="145.25185"
       x2="176.81055"
       y2="145.25185" />
    <linearGradient
       inkscape:collect="always"
       xlink:href="#linearGradient1308"
       id="linearGradient1316"
       gradientUnits="userSpaceOnUse"
       x1="27.368195"
       y1="145.25185"
       x2="176.81055"
       y2="145.25185" />
    <linearGradient
       inkscape:collect="always"
       xlink:href="#linearGradient1308"
       id="linearGradient1317"
       gradientUnits="userSpaceOnUse"
       x1="27.368195"
       y1="145.25185"
       x2="176.81055"
       y2="145.25185" />
    <linearGradient
       inkscape:collect="always"
       xlink:href="#linearGradient1308"
       id="linearGradient1318"
       gradientUnits="userSpaceOnUse"
       x1="27.368195"
       y1="145.25185"
       x2="176.81055"
       y2="145.25185" />
    <linearGradient
       inkscape:collect="always"
       xlink:href="#linearGradient1308"
       id="linearGradient1319"
       gradientUnits="userSpaceOnUse"
       x1="27.368195"
       y1="145.25185"
       x2="176.81055"
       y2="145.25185" />
    <linearGradient
       inkscape:collect="always"
       xlink:href="#linearGradient1308"
       id="linearGradient1320"
       gradientUnits="userSpaceOnUse"
       x1="27.368195"
       y1="145.25185"
       x2="176.81055"
       y2="145.25185" />
    <linearGradient
       inkscape:collect="always"
       xlink:href="#linearGradient1308"
       id="linearGradient1321"
       gradientUnits="userSpaceOnUse"
       x1="27.368195"
       y1="145.25185"
       x2="176.81055"
       y2="145.25185" />
    <linearGradient
       inkscape:collect="always"
       xlink:href="#linearGradient1308"
       id="linearGradient1322"
       gradientUnits="userSpaceOnUse"
       x1="27.368195"
       y1="145.25185"
       x2="176.81055"
       y2="145.25185" />
    <linearGradient
       inkscape:collect="always"
       xlink:href="#linearGradient1308"
       id="linearGradient1323"
       gradientUnits="userSpaceOnUse"
       x1="27.368195"
       y1="145.25185"
       x2="176.81055"
       y2="145.25185" />
    <linearGradient
       inkscape:collect="always"
       xlink:href="#linearGradient1308"
       id="linearGradient1324"
       gradientUnits="userSpaceOnUse"
       x1="27.368195"
       y1="145.25185"
       x2="176.81055"
       y2="145.25185" />
    <linearGradient
       inkscape:collect="always"
       xlink:href="#linearGradient1308"
       id="linearGradient1325"
       gradientUnits="userSpaceOnUse"
       x1="27.368195"
       y1="145.25185"
       x2="176.81055"
       y2="145.25185" />
    <linearGradient
       inkscape:collect="always"
       xlink:href="#linearGradient1308"
       id="linearGradient1326"
       gradientUnits="userSpaceOnUse"
       x1="27.368195"
       y1="145.25185"
       x2="176.81055"
       y2="145.25185" />
    <linearGradient
       inkscape:collect="always"
       xlink:href="#linearGradient1308"
       id="linearGradient1327"
       gradientUnits="userSpaceOnUse"
       x1="27.368195"
       y1="145.25185"
       x2="176.81055"
       y2="145.25185" />
    <linearGradient
       inkscape:collect="always"
       xlink:href="#linearGradient1308"
       id="linearGradient1328"
       gradientUnits="userSpaceOnUse"
       x1="27.368195"
       y1="145.25185"
       x2="176.81055"
       y2="145.25185" />
    <linearGradient
       inkscape:collect="always"
       xlink:href="#linearGradient1308"
       id="linearGradient1329"
       gradientUnits="userSpaceOnUse"
       x1="27.368195"
       y1="145.25185"
       x2="176.81055"
       y2="145.25185" />
    <linearGradient
       inkscape:collect="always"
       xlink:href="#linearGradient1308"
       id="linearGradient1330"
       gradientUnits="userSpaceOnUse"
       x1="27.368195"
       y1="145.25185"
       x2="176.81055"
       y2="145.25185" />
    <linearGradient
       inkscape:collect="always"
       xlink:href="#linearGradient1308"
       id="linearGradient1331"
       gradientUnits="userSpaceOnUse"
       x1="27.368195"
       y1="145.25185"
       x2="176.81055"
       y2="145.25185" />
    <linearGradient
       inkscape:collect="always"
       xlink:href="#linearGradient1308"
       id="linearGradient1332"
       gradientUnits="userSpaceOnUse"
       x1="27.368195"
       y1="145.25185"
       x2="176.81055"
       y2="145.25185" />
    <linearGradient
       inkscape:collect="always"
       xlink:href="#linearGradient1308"
       id="linearGradient1333"
       gradientUnits="userSpaceOnUse"
       x1="27.368195"
       y1="145.25185"
       x2="176.81055"
       y2="145.25185" />
    <linearGradient
       inkscape:collect="always"
       xlink:href="#linearGradient1308"
       id="linearGradient1334"
       gradientUnits="userSpaceOnUse"
       x1="27.368195"
       y1="145.25185"
       x2="176.81055"
       y2="145.25185" />
    <linearGradient
       inkscape:collect="always"
       xlink:href="#linearGradient1308"
       id="linearGradient1335"
       gradientUnits="userSpaceOnUse"
       x1="27.368195"
       y1="145.25185"
       x2="176.81055"
       y2="145.25185" />
    <linearGradient
       inkscape:collect="always"
       xlink:href="#linearGradient1308"
       id="linearGradient1336"
       gradientUnits="userSpaceOnUse"
       x1="27.368195"
       y1="145.25185"
       x2="176.81055"
       y2="145.25185" />
  </defs>
  <metadata
     id="metadata1">
    <rdf:RDF>
      <cc:Work
         rdf:about="">
        <dc:format>image/svg+xml</dc:format>
        <dc:type
           rdf:resource="http://purl.org/dc/dcmitype/StillImage" />
      </cc:Work>
    </rdf:RDF>
  </metadata>
  <g
     id="g1303"
     style="fill:url(#linearGradient1309)"
     transform="matrix(1.5506165,0,0,1.3948404,-53.963127,-48.090884)">
    <path
       style="color:#000000;fill:url(#linearGradient1310);-inkscape-stroke:none"
       d="m 47.625,135.86914 c -2.321139,0.11975 -4.617796,0.55651 -6.796875,1.37305 -4.847835,1.81655 -8.959032,5.51562 -11.277344,10.14453 -2.318312,4.62891 -2.816021,10.13338 -1.367187,15.10351 l 0.253906,-0.0723 c -1.429559,-4.90402 -0.935908,-10.34673 1.351562,-14.91406 2.287471,-4.56733 6.349471,-8.22129 11.132813,-10.01368 4.301939,-1.612 9.081609,-1.73264 13.595703,-0.82812 4.514878,0.90468 8.789726,2.79672 12.791016,5.0957 6.3054,3.62283 11.977036,8.25148 17.943359,12.44531 5.966643,4.19407 12.375162,8.0191 19.492187,9.70313 6.18309,1.46305 12.69044,1.2407 18.89063,-0.11328 6.19979,-1.35389 12.1123,-3.81343 17.71484,-6.77735 7.61032,-4.02609 14.89254,-9.06024 23.28711,-10.75 1.98029,-0.39861 3.99953,-0.60543 6.01953,-0.61328 v -0.26367 c -2.03723,0.008 -4.07313,0.21517 -6.07031,0.61719 -8.46509,1.70395 -15.76808,6.75936 -23.35938,10.77539 -5.58802,2.95623 -11.47966,5.40679 -17.64843,6.75391 -6.16838,1.34703 -12.63668,1.56536 -18.77344,0.11328 -7.064299,-1.67156 -13.446759,-5.47582 -19.402346,-9.66211 -5.955906,-4.18652 -11.632534,-8.81987 -17.962891,-12.45703 -4.017492,-2.30829 -8.318101,-4.21268 -12.871094,-5.125 -2.276888,-0.45624 -4.62222,-0.65491 -6.943359,-0.53516 z"
       id="path626" />
    <path
       style="color:#000000;fill:url(#linearGradient1311);-inkscape-stroke:none"
       d="m 120.74414,121.80664 c -1.29254,-0.0319 -2.58733,0.0278 -3.86719,0.17383 -5.11828,0.5841 -10.01261,2.47343 -14.52734,4.93164 -9.813808,5.34348 -17.895541,13.29511 -26.988282,19.72266 -12.041217,8.51178 -25.955153,14.36151 -40.460937,17.01171 l 0.04883,0.25977 c 14.544074,-2.6572 28.491451,-8.52044 40.564453,-17.05469 9.116339,-6.44422 17.192389,-14.38713 26.962886,-19.70703 4.49417,-2.44701 9.35833,-4.32142 14.43164,-4.90039 5.07217,-0.57884 10.3775,0.20241 14.78711,2.75391 4.29479,2.48505 7.53639,6.50337 9.98828,10.83789 2.45234,4.33531 4.20035,9.03393 6.19336,13.61914 1.89591,4.3618 4.05918,8.6917 7.22266,12.26758 3.16489,3.57746 7.45234,6.36486 12.2168,6.89257 3.27847,0.36313 6.66723,-0.37845 9.49414,-2.07812 l -0.13672,-0.22852 c -2.77598,1.66906 -6.10871,2.39956 -9.32813,2.04297 -4.68029,-0.51839 -8.91736,-3.26501 -12.04883,-6.80469 -3.13286,-3.54126 -5.28367,-7.84422 -7.17578,-12.19726 -1.98921,-4.57645 -3.7409,-9.28485 -6.20703,-13.64453 -2.46657,-4.36048 -5.73414,-8.41751 -10.08594,-10.93555 -3.35172,-1.93938 -7.20636,-2.86707 -11.08398,-2.96289 z"
       id="path1066" />
    <path
       style="color:#000000;fill:url(#linearGradient1312);-inkscape-stroke:none"
       d="m 46.927734,135.97656 c -2.050655,0.17457 -4.074519,0.60348 -6.005859,1.32813 -4.847092,1.81904 -8.960213,5.51127 -11.289063,10.1289 -2.328851,4.61764 -2.846638,10.10839 -1.423828,15.0625 l 0.253907,-0.0742 c -1.403787,-4.88787 -0.891694,-10.31278 1.40625,-14.86914 2.297946,-4.55635 6.361632,-8.20504 11.144531,-10 3.813111,-1.43069 8.000582,-1.69557 12.044922,-1.11718 0.518106,0.0747 1.0329,0.16214 1.544922,0.26367 4.512198,0.89025 8.785069,2.76264 12.785156,5.04101 4.939408,2.81343 9.492453,6.24277 14.103515,9.59961 1.273555,0.92619 2.551565,1.84918 3.84375,2.75 2.791254,1.94779 5.67929,3.81725 8.691407,5.42774 3.430326,1.83397 7.021666,3.33218 10.810546,4.23047 1.10009,0.26097 2.20932,0.4684 3.32617,0.62695 4.82077,0.68438 9.75968,0.44098 14.53711,-0.48242 h 0.002 c 0.33579,-0.0652 0.66986,-0.13285 1.0039,-0.20508 4.42309,-0.94737 8.69571,-2.45849 12.81641,-4.3125 1.64472,-0.73922 3.26625,-1.53305 4.86133,-2.36914 2.47911,-1.29863 4.92401,-2.70505 7.38476,-4.06836 4.06495,-2.25186 8.17412,-4.38714 12.55078,-5.73242 1.09609,-0.3378 2.20843,-0.62545 3.3418,-0.85352 1.98061,-0.39831 3.99997,-0.60424 6.01953,-0.61719 l -0.002,-0.26562 c -2.03644,0.013 -4.07293,0.22136 -6.07032,0.62305 -1.14263,0.22993 -2.26327,0.51917 -3.36718,0.85937 -4.40733,1.35471 -8.53252,3.49977 -12.60157,5.75391 -2.46324,1.36469 -4.90602,2.77104 -7.3789,4.0664 -1.59092,0.83391 -3.20643,1.62651 -4.8457,2.36329 -4.1073,1.84798 -8.36473,3.35034 -12.76563,4.29296 -0.33196,0.0718 -0.66384,0.14024 -0.99805,0.20508 -4.75255,0.9186 -9.66394,1.16009 -14.45117,0.48047 -1.10914,-0.15745 -2.21082,-0.36402 -3.30273,-0.62305 -3.76112,-0.8917 -7.330629,-2.381 -10.746096,-4.20703 -2.999078,-1.60351 -5.879875,-3.46594 -8.666016,-5.41015 -1.289811,-0.89917 -2.566801,-1.82028 -3.839844,-2.7461 -4.608728,-3.35514 -9.167971,-6.79066 -14.126953,-9.61523 -4.016305,-2.28762 -8.313089,-4.17452 -12.863281,-5.07227 -0.516777,-0.10247 -1.038054,-0.19031 -1.560547,-0.26562 -2.040426,-0.29181 -4.117313,-0.37183 -6.167969,-0.19727 z"
       id="path1274" />
    <path
       style="color:#000000;fill:url(#linearGradient1313);-inkscape-stroke:none"
       d="m 47.199219,136.14258 c -2.047572,0.18561 -4.067591,0.62346 -5.998047,1.35156 -4.8447,1.82692 -8.96788,5.49784 -11.328125,10.08203 -2.360346,4.58319 -2.930652,10.02533 -1.585938,14.9336 l 0.253907,-0.0703 c -1.326483,-4.84172 -0.76089,-10.21938 1.568359,-14.74218 2.32915,-4.5238 6.404056,-8.15396 11.185547,-9.95704 3.812081,-1.43779 7.990119,-1.7252 12.027344,-1.18164 0.516934,0.0697 1.031637,0.15439 1.542968,0.25 4.50419,0.84746 8.768965,2.66143 12.765625,4.87891 4.935302,2.73756 9.49002,6.08436 14.107422,9.36914 1.275309,0.90722 2.555183,1.80864 3.84961,2.69141 2.796496,1.9087 5.691435,3.74374 8.708984,5.33007 3.436412,1.8068 7.031875,3.29306 10.820315,4.19727 1.09903,0.26296 2.20758,0.47318 3.32226,0.63672 4.8142,0.70537 9.73593,0.51264 14.48633,-0.34961 0.33406,-0.0602 0.66725,-0.12425 1,-0.19141 4.39601,-0.88822 8.63866,-2.32838 12.73242,-4.11132 1.63469,-0.71117 3.24492,-1.47613 4.83203,-2.28321 2.46514,-1.25259 4.89775,-2.6132 7.35352,-3.93554 h 0.002 c 4.05295,-2.1839 8.1646,-4.26139 12.54688,-5.58594 1.0964,-0.33092 2.20841,-0.61572 3.34179,-0.8418 1.982,-0.3964 4.00182,-0.60987 6.01758,-0.63476 l -0.002,-0.26368 c -2.03223,0.0251 -4.0684,0.23907 -6.06641,0.63868 -1.14261,0.22792 -2.26359,0.51652 -3.36718,0.8496 -4.41172,1.33345 -8.54062,3.41937 -12.59766,5.60547 -2.45822,1.32366 -4.89075,2.68224 -7.34961,3.93164 -1.58288,0.80493 -3.18709,1.56852 -4.81641,2.27735 -4.08022,1.77705 -8.3057,3.21193 -12.67968,4.0957 -0.33125,0.0668 -0.6622,0.12964 -0.99414,0.18945 -4.72559,0.85775 -9.6186,1.04829 -14.40039,0.34766 -1.10732,-0.16246 -2.20786,-0.37178 -3.29883,-0.63281 -3.76156,-0.89779 -7.337787,-2.37463 -10.759768,-4.17383 -3.004845,-1.57966 -5.892096,-3.40916 -8.683594,-5.31445 -1.29217,-0.88123 -2.571014,-1.78268 -3.845703,-2.68946 -4.615189,-3.28321 -9.175971,-6.63438 -14.130859,-9.38281 -4.012932,-2.22651 -8.303902,-4.05366 -12.845704,-4.9082 -0.515467,-0.0964 -1.034975,-0.18164 -1.55664,-0.25196 -2.036684,-0.27421 -4.110632,-0.3399 -6.158203,-0.15429 z"
       id="path1275" />
    <path
       style="color:#000000;fill:url(#linearGradient1314);-inkscape-stroke:none"
       d="m 47.654297,136.41992 c -2.042437,0.20381 -4.05939,0.65175 -5.988281,1.38477 -4.840695,1.84071 -8.977846,5.48234 -11.390625,10.00976 -2.412766,4.5274 -3.075853,9.88825 -1.861329,14.71875 l 0.257813,-0.0644 c -1.197674,-4.76349 -0.543539,-10.0607 1.837891,-14.5293 2.381415,-4.46857 6.470903,-8.06943 11.25,-9.88672 3.810209,-1.44795 7.978642,-1.77392 12.003906,-1.28906 0.515417,0.0617 1.027288,0.13892 1.537109,0.22656 4.490766,0.77481 8.745247,2.49373 12.736328,4.60743 4.928553,2.61078 9.483281,5.82166 14.111328,8.98437 1.278192,0.8742 2.561095,1.74495 3.859375,2.59766 2.805199,1.84357 5.709496,3.62088 8.736329,5.16797 3.446168,1.76151 7.052219,3.22461 10.837889,4.13867 1.09871,0.26489 2.2078,0.48275 3.32031,0.65429 4.80328,0.74136 9.69121,0.63203 14.39649,-0.12695 0.33081,-0.0531 0.65921,-0.10777 0.98828,-0.16797 4.35291,-0.78897 8.54588,-2.11454 12.5957,-3.77734 1.61571,-0.66311 3.20914,-1.38065 4.78125,-2.13867 2.44321,-1.17655 4.8599,-2.46246 7.30469,-3.71485 4.03603,-2.06998 8.15176,-4.05187 12.54102,-5.33984 1.0986,-0.32201 2.21388,-0.60101 3.34765,-0.82617 1.98448,-0.39451 4.00339,-0.61533 6.01563,-0.66016 l -0.006,-0.26562 c -2.02776,0.0452 -4.06299,0.27047 -6.0625,0.66797 -1.14223,0.22683 -2.26375,0.50608 -3.36914,0.83007 -4.41674,1.29603 -8.54793,3.28737 -12.58789,5.35938 -2.44667,1.25336 -4.86257,2.53773 -7.29883,3.71094 -1.56788,0.75597 -3.15729,1.47192 -4.76758,2.13281 -4.03617,1.65719 -8.20993,2.97474 -12.54102,3.75976 -0.32692,0.0598 -0.65518,0.11706 -0.98437,0.16993 -4.68071,0.75501 -9.54174,0.86164 -14.31445,0.125 -1.10549,-0.17046 -2.20559,-0.38729 -3.29688,-0.65039 -3.76032,-0.90794 -7.346871,-2.36271 -10.779296,-4.11719 -3.01476,-1.54092 -5.910541,-3.31193 -8.710937,-5.15235 -1.296117,-0.85128 -2.579817,-1.7219 -3.857422,-2.5957 -4.625943,-3.16128 -9.188482,-6.37879 -14.136719,-9 -4.00731,-2.12229 -8.286628,-3.85357 -12.814453,-4.63476 -0.513978,-0.0884 -1.0306,-0.16428 -1.550781,-0.22657 -2.030364,-0.24456 -4.098188,-0.28583 -6.140625,-0.082 z"
       id="path1276" />
    <path
       style="color:#000000;fill:url(#linearGradient1315);-inkscape-stroke:none"
       d="m 54.40625,136.78711 c -4.043032,-0.40573 -8.236341,-0.0238 -12.089844,1.45703 -4.835198,1.85842 -8.992389,5.45598 -11.478515,9.9043 -2.486216,4.44729 -3.27622,9.69425 -2.244141,14.41601 l 0.259766,-0.0566 c -1.017319,-4.65423 -0.237782,-9.83977 2.216796,-14.23047 2.454469,-4.39167 6.566005,-7.95152 11.341797,-9.78711 3.80769,-1.46319 7.958237,-1.84172 11.966797,-1.43945 0.513369,0.0518 1.02533,0.11569 1.533203,0.19141 4.471986,0.67528 8.708364,2.2595 12.691407,4.23047 4.919038,2.43312 9.476255,5.45269 14.11914,8.44726 1.282279,0.82718 2.571384,1.65132 3.875,2.46289 2.81721,1.75138 5.735798,3.44966 8.775391,4.94141 3.46007,1.69913 7.078693,3.13174 10.861333,4.05859 1.09837,0.26883 2.20331,0.49226 3.3125,0.67578 4.78996,0.79131 9.62946,0.80305 14.27148,0.18946 h 0.002 c 0.3258,-0.0431 0.65074,-0.0895 0.97461,-0.13868 4.29168,-0.65162 8.41251,-1.81501 12.40039,-3.30859 1.59168,-0.597 3.1617,-1.24559 4.71485,-1.93555 2.41229,-1.07046 4.8045,-2.25078 7.23437,-3.40625 4.01114,-1.91111 8.12963,-3.7576 12.5293,-4.99414 1.10088,-0.31012 2.21925,-0.58143 3.35547,-0.80468 1.98619,-0.39067 4.00473,-0.62644 6.01172,-0.70118 l -0.01,-0.26367 c -2.02101,0.0753 -4.05489,0.31174 -6.05469,0.70508 -1.14378,0.22474 -2.26788,0.49672 -3.375,0.80859 -4.42432,1.24347 -8.55741,3.09884 -12.57226,5.01172 -2.43212,1.15654 -4.82087,2.33481 -7.22657,3.40235 -1.54884,0.68804 -3.11485,1.33469 -4.70117,1.92968 -3.9741,1.48842 -8.07539,2.64655 -12.3457,3.29493 -0.32213,0.0489 -0.6465,0.0938 -0.9707,0.13671 -4.61797,0.61041 -9.43329,0.60115 -14.19532,-0.18554 -1.1028,-0.18247 -2.20134,-0.40666 -3.29296,-0.67383 -3.75936,-0.92115 -7.361275,-2.34424 -10.808599,-4.03711 -3.028401,-1.48625 -5.937215,-3.18106 -8.75,-4.92969 -1.301781,-0.81042 -2.589375,-1.63412 -3.871094,-2.46093 -4.641105,-2.99343 -9.207732,-6.01807 -14.146484,-8.46094 -3.99935,-1.97903 -8.261526,-3.57514 -12.769531,-4.25586 -0.511726,-0.0763 -1.027092,-0.14114 -1.544922,-0.19336 z"
       id="path1277" />
    <path
       style="color:#000000;fill:url(#linearGradient1316);-inkscape-stroke:none"
       d="m 55.191406,137.15625 c -4.020232,-0.29923 -8.189308,0.15089 -12.037109,1.65039 -4.828144,1.88302 -9.011355,5.42368 -11.591797,9.76953 -2.580401,4.34679 -3.533836,9.44836 -2.736328,14.0293 l 0.259765,-0.0449 c -0.78569,-4.51306 0.156484,-9.55641 2.705079,-13.84961 2.548553,-4.29215 6.687337,-7.79722 11.458984,-9.65821 3.804192,-1.4825 7.934715,-1.92958 11.921875,-1.63281 0.510722,0.0379 1.01855,0.0867 1.523437,0.14844 4.447929,0.54487 8.663969,1.95876 12.636719,3.74609 4.906926,2.20457 9.468971,4.9785 14.13086,7.75391 1.287387,0.76711 2.582014,1.53452 3.892578,2.29101 2.832643,1.63413 5.768208,3.23007 8.824218,4.6504 3.477889,1.61864 7.113283,3.00955 10.892583,3.95312 1.09698,0.27374 2.19991,0.50853 3.30468,0.70703 4.77126,0.8552 9.55366,1.01693 14.11328,0.58985 0.32087,-0.0301 0.63849,-0.0626 0.95704,-0.0977 4.21335,-0.47316 8.24044,-1.4307 12.14843,-2.70899 1.55977,-0.5099 3.10073,-1.07094 4.62696,-1.67382 2.37344,-0.93336 4.73449,-1.97527 7.14453,-3.00586 3.97839,-1.70531 8.10598,-3.38051 12.51953,-4.55274 1.10446,-0.29332 2.22365,-0.55699 3.36133,-0.77734 1.99014,-0.38587 4.01088,-0.63834 6.00976,-0.75 l -0.0137,-0.26367 c -2.01112,0.11234 -4.04502,0.36577 -6.04687,0.7539 -1.14433,0.22165 -2.26938,0.48658 -3.37891,0.78125 -4.43444,1.17778 -8.57309,2.85777 -12.55469,4.56446 -2.41196,1.03141 -4.77017,2.07326 -7.13672,3.0039 -1.52176,0.60112 -3.05905,1.16183 -4.61328,1.66992 -3.894,1.27372 -7.90306,2.22448 -12.0957,2.69532 -0.31746,0.0349 -0.63399,0.0677 -0.95313,0.0977 -4.53636,0.42491 -9.29428,0.26487 -14.04101,-0.58593 -1.09923,-0.19751 -2.19609,-0.43087 -3.28711,-0.70313 -3.75869,-0.93843 -7.3792,-2.32415 -10.845704,-3.9375 -3.045983,-1.41567 -5.973983,-3.00875 -8.802735,-4.64062 -1.308833,-0.7555 -2.603615,-1.52218 -3.890625,-2.28907 -4.660501,-2.77458 -9.231539,-5.55414 -14.158203,-7.76757 -3.989042,-1.79467 -8.228275,-3.2165 -12.710937,-3.76563 -0.509112,-0.0623 -1.022233,-0.11224 -1.53711,-0.15039 z"
       id="path1278" />
    <path
       style="color:#000000;fill:url(#linearGradient1317);-inkscape-stroke:none"
       d="m 56.152344,137.60547 c -3.992316,-0.16866 -8.133559,0.36556 -11.97461,1.88867 -4.81962,1.91152 -9.034819,5.38645 -11.730468,9.60742 -2.695501,4.22191 -3.848407,9.14291 -3.337891,13.55274 l 0.261719,-0.0293 c -0.502684,-4.34217 0.635134,-9.20877 3.298828,-13.38086 2.663745,-4.17102 6.836946,-7.61343 11.603515,-9.50391 3.800142,-1.50688 7.906112,-2.03648 11.867188,-1.86914 0.50721,0.0209 1.011926,0.0538 1.513672,0.0977 4.41853,0.38656 8.607942,1.58662 12.568359,3.14844 4.892104,1.92614 9.459402,4.39998 14.144531,6.91015 1.293624,0.69407 2.596944,1.38973 3.916016,2.08008 2.851447,1.48981 5.806692,2.96305 8.882813,4.29688 3.499654,1.51906 7.156964,2.86 10.931644,3.82422 1.09551,0.27964 2.19566,0.52769 3.29492,0.74414 4.74814,0.93299 9.45605,1.27856 13.91601,1.08007 0.31285,-0.014 0.62495,-0.0298 0.93555,-0.0488 4.11779,-0.25561 8.03172,-0.95878 11.8418,-1.97266 1.52077,-0.40474 3.02624,-0.85878 4.52148,-1.35352 2.32458,-0.76718 4.64782,-1.64468 7.03516,-2.52343 3.93983,-1.45557 8.07209,-2.91877 12.50195,-4.00977 1.10802,-0.27351 2.23367,-0.52469 3.37305,-0.74219 1.99532,-0.3801 4.01488,-0.65294 6.0039,-0.81054 l -0.0195,-0.26368 c -1.99897,0.1584 -4.03048,0.43257 -6.03515,0.81446 -1.14463,0.2185 -2.27279,0.46965 -3.38477,0.74414 -4.44612,1.095 -8.58909,2.5631 -12.53125,4.01953 -2.38866,0.87924 -4.70797,1.75471 -7.02539,2.51953 -1.49076,0.49326 -2.99259,0.94635 -4.50781,1.34961 -3.79592,1.01012 -7.69086,1.7085 -11.78906,1.96289 -0.3094,0.019 -0.62049,0.0368 -0.93164,0.0508 -4.43803,0.19751 -9.12567,-0.14716 -13.85352,-1.07617 -1.09474,-0.21555 -2.19077,-0.46188 -3.28125,-0.74023 -3.75731,-0.95978 -7.40049,-2.29757 -10.890626,-3.8125 -3.067673,-1.33017 -6.016886,-2.79892 -8.865234,-4.28711 -1.317725,-0.68965 -2.620688,-1.38615 -3.914063,-2.08008 -4.68446,-2.50982 -9.262141,-4.98802 -14.173828,-6.92188 -3.976574,-1.56818 -8.189164,-2.77657 -12.640625,-3.16601 -0.505653,-0.0442 -1.014002,-0.0785 -1.52539,-0.0996 z"
       id="path1279" />
    <path
       style="color:#000000;fill:url(#linearGradient1318);-inkscape-stroke:none"
       d="m 57.287109,138.13867 c -3.959128,-0.014 -8.067423,0.61734 -11.90039,2.16797 -4.809384,1.9449 -9.061099,5.33936 -11.892578,9.41406 -2.83141,4.07461 -4.22203,8.78607 -4.050782,12.99219 l 0.265625,-0.0117 c -0.168551,-4.13987 1.201969,-8.80069 4.001953,-12.83008 2.799915,-4.02928 7.013031,-7.39326 11.773438,-9.31836 3.795225,-1.53536 7.870517,-2.16434 11.800781,-2.15039 0.503553,0.002 1.006168,0.0142 1.503906,0.0371 4.384118,0.19931 8.540668,1.14992 12.486329,2.44532 4.874888,1.59785 9.449679,3.71718 14.162109,5.9121 v -0.002 c 1.300943,0.60698 2.612419,1.22081 3.941406,1.83203 2.873704,1.32046 5.853364,2.64666 8.953125,3.87696 3.525019,1.40244 7.206829,2.68701 10.976559,3.67578 1.09403,0.28753 2.19054,0.54779 3.28321,0.78515 4.72163,1.02566 9.34163,1.59 13.68359,1.66016 0.30458,0.005 0.60728,0.008 0.91016,0.008 4.00391,0.002 7.7834,-0.40021 11.47851,-1.10156 1.47474,-0.28052 2.93715,-0.60796 4.39453,-0.97656 2.2678,-0.56996 4.54642,-1.24832 6.90625,-1.94727 3.89365,-1.15889 8.03467,-2.37428 12.48438,-3.37109 1.11276,-0.24972 2.24263,-0.48752 3.38476,-0.70117 2.00066,-0.37338 4.02352,-0.66924 6.00196,-0.88086 l -0.0293,-0.26368 c -1.98556,0.21239 -4.01414,0.51015 -6.02148,0.88477 -1.14586,0.21435 -2.27735,0.45285 -3.39258,0.70313 -4.46028,0.99918 -8.60956,2.21589 -12.50391,3.375 -2.36016,0.69904 -4.63433,1.37726 -6.89453,1.94531 -1.45261,0.36739 -2.90965,0.69318 -4.37891,0.97265 -3.68088,0.69865 -7.4436,1.09966 -11.42968,1.09766 -0.30113,0 -0.60283,-0.003 -0.90625,-0.008 -4.32204,-0.0698 -8.92451,-0.63391 -13.63086,-1.65625 -1.08933,-0.23664 -2.18347,-0.49479 -3.27344,-0.78125 -3.75625,-0.98523 -7.42754,-2.26646 -10.945313,-3.66602 -3.093232,-1.2277 -6.069715,-2.55156 -8.941406,-3.87109 -1.32801,-0.61078 -2.638399,-1.22305 -3.939453,-1.83008 -4.712761,-2.19507 -9.297304,-4.31968 -14.191406,-5.92383 -3.961532,-1.3006 -8.141967,-2.25633 -12.556641,-2.45703 -0.50166,-0.0231 -1.006625,-0.0351 -1.513672,-0.0371 z"
       id="path1280" />
    <path
       style="color:#000000;fill:url(#linearGradient1319);-inkscape-stroke:none"
       d="m 60.095703,138.7168 c -0.4967,0.002 -0.997661,0.0141 -1.5,0.0351 -3.92098,0.16354 -7.990737,0.91115 -11.814453,2.49219 -4.797517,1.98515 -9.092059,5.28639 -12.080078,9.19141 -2.987937,3.9039 -4.648704,8.37051 -4.869141,12.34179 l 0.263672,0.0156 c 0.216963,-3.90871 1.858949,-8.33318 4.816406,-12.19727 2.957375,-3.86497 7.21743,-7.14057 11.970703,-9.10742 3.789676,-1.56696 7.829598,-2.3102 11.72461,-2.47266 0.49886,-0.0209 0.994783,-0.0312 1.488281,-0.0332 4.344253,-0.0179 8.465545,0.64668 12.394531,1.63477 4.854902,1.21667 9.437778,2.92613 14.181641,4.75976 1.309359,0.50587 2.630343,1.02191 3.970703,1.54297 2.899228,1.12309 5.908343,2.27986 9.035156,3.39258 3.554276,1.26677 7.264826,2.48473 11.027346,3.50195 1.09331,0.29536 2.18549,0.57175 3.27148,0.83399 4.68973,1.13214 9.20866,1.94931 13.41211,2.33008 0.29586,0.0271 0.59056,0.0512 0.88281,0.0742 3.87156,0.29758 7.49648,0.24208 11.0586,-0.0996 1.42162,-0.13725 2.83438,-0.3176 4.25,-0.54101 2.20122,-0.34065 4.42634,-0.79309 6.75586,-1.2832 3.8409,-0.8182 7.99471,-1.7452 12.46679,-2.63282 1.11869,-0.22193 2.25347,-0.44353 3.39844,-0.65234 2.00717,-0.36667 4.02998,-0.69206 5.9961,-0.9668 l -0.0371,-0.26172 c -1.96988,0.27527 -3.99699,0.60142 -6.00782,0.96875 -1.14702,0.20919 -2.28108,0.43029 -3.40039,0.65235 -4.4759,0.88838 -8.63161,1.815 -12.4707,2.63281 -2.32848,0.48989 -4.54941,0.9419 -6.74219,1.28125 -1.41038,0.22259 -2.818,0.40232 -4.23437,0.53906 -3.54788,0.34032 -7.15528,0.39603 -11.01172,0.0996 -0.29175,-0.023 -0.58672,-0.0473 -0.88086,-0.0742 -4.18654,-0.37923 -8.69278,-1.19436 -13.37305,-2.32422 -1.084,-0.26175 -2.17493,-0.53738 -3.26562,-0.83203 -3.75348,-1.01477 -7.45594,-2.23087 -11.005862,-3.49609 -3.12278,-1.11128 -6.13053,-2.26576 -9.029297,-3.38867 -1.340037,-0.52094 -2.662618,-1.03879 -3.972656,-1.54492 -4.745728,-1.83436 -9.337449,-3.54625 -14.210938,-4.76758 -3.944205,-0.99191 -8.087045,-1.66259 -12.458984,-1.64453 z"
       id="path1281" />
    <path
       style="color:#000000;fill:url(#linearGradient1320);-inkscape-stroke:none"
       d="m 61.5625,139.33203 c -0.491299,0.0301 -0.985581,0.07 -1.482422,0.11719 -3.877533,0.36405 -7.905479,1.24202 -11.71875,2.85937 -4.784198,2.02927 -9.125878,5.22658 -12.291016,8.9375 -3.164939,3.71182 -5.132811,7.90084 -5.796875,11.60352 l 0.259766,0.0469 c 0.654135,-3.64731 2.602028,-7.80229 5.738281,-11.48046 3.136257,-3.67707 7.448168,-6.85056 12.19336,-8.86329 3.783322,-1.60464 7.785565,-2.47985 11.640625,-2.84179 0.493758,-0.0469 0.984156,-0.0834 1.472656,-0.11328 4.299422,-0.26227 8.380873,0.075 12.291016,0.71484 4.832552,0.78658 9.422019,2.0317 14.201171,3.45312 1.318971,0.39282 2.652487,0.80083 4.00586,1.21875 2.927884,0.90178 5.96953,1.86559 9.126958,2.84375 3.58743,1.11414 7.3299,2.25613 11.08593,3.30469 1.09061,0.30517 2.17762,0.60056 3.25586,0.89063 4.65442,1.25238 9.05911,2.35474 13.10742,3.08789 0.28425,0.051 0.56811,0.10035 0.84961,0.14844 3.72172,0.63397 7.17109,0.97097 10.58203,1.0371 1.3606,0.026 2.71824,0.0122 4.08399,-0.0449 2.12657,-0.0832 4.29317,-0.27996 6.58789,-0.53515 h 0.002 c 3.78189,-0.43033 7.94536,-1.02963 12.44336,-1.79297 h 0.002 c 1.124,-0.191 2.26366,-0.39276 3.41211,-0.59766 2.01402,-0.357 4.0383,-0.71751 5.99024,-1.0625 l -0.0469,-0.25976 c -1.95206,0.34501 -3.9743,0.70355 -5.98828,1.06054 -1.14889,0.20498 -2.28873,0.40677 -3.41211,0.59766 -4.49399,0.76266 -8.65553,1.3633 -12.43164,1.79297 -2.29127,0.25481 -4.45094,0.44843 -6.56836,0.53125 -1.36024,0.0569 -2.71295,0.0709 -4.06836,0.0449 -3.39705,-0.0659 -6.83269,-0.39922 -10.54297,-1.03125 -0.2805,-0.0479 -0.56389,-0.0975 -0.84765,-0.14844 -4.03568,-0.73085 -8.43241,-1.83237 -13.08399,-3.08398 -1.07775,-0.28994 -2.16647,-0.5858 -3.25585,-0.89063 -3.75197,-1.04743 -7.48962,-2.18692 -11.07618,-3.30078 h -0.002 c -3.15637,-0.97783 -6.197644,-1.94153 -9.126953,-2.84375 -1.353825,-0.41807 -2.687585,-0.82751 -4.007813,-1.2207 -4.783037,-1.42258 -9.384337,-2.67152 -14.234375,-3.46094 -3.924449,-0.64217 -8.02624,-0.98248 -12.349609,-0.71875 z"
       id="path1282" />
    <path
       style="color:#000000;fill:url(#linearGradient1321);-inkscape-stroke:none"
       d="m 69.453125,139.56836 c -2.035106,0.0426 -4.115467,0.18401 -6.25,0.45312 h -0.002 c -0.484998,0.0621 -0.972262,0.12888 -1.462891,0.20508 -3.828764,0.58841 -7.807864,1.61199 -11.609375,3.26953 -4.76949,2.07823 -9.166755,5.15774 -12.529297,8.6543 -3.362418,3.49643 -5.671361,7.37658 -6.830078,10.77734 l 0.25,0.0859 c 1.143881,-3.35722 3.434909,-7.21013 6.771485,-10.67969 3.336451,-3.46943 7.707059,-6.52998 12.443359,-8.59375 3.776082,-1.64645 7.734493,-2.66636 11.544922,-3.25195 0.487329,-0.0757 0.972705,-0.14327 1.455078,-0.20508 4.249526,-0.53576 8.288511,-0.56308 12.177734,-0.3125 4.807751,0.3045 9.404165,1.0318 14.222657,1.99414 1.329686,0.26682 2.677384,0.55166 4.044921,0.85547 2.959955,0.65357 6.036835,1.40279 9.22851,2.23047 3.6244,0.94458 7.40119,2.00216 11.14844,3.08594 1.08985,0.31596 2.17291,0.63134 3.24219,0.95312 4.61474,1.38733 8.89204,2.8066 12.76562,3.93164 0.27152,0.0789 0.54164,0.1584 0.81055,0.23438 3.55528,1.00893 6.80922,1.78263 10.05078,2.30469 1.29268,0.20727 2.587,0.38053 3.89844,0.50781 2.04311,0.20652 4.14412,0.29763 6.40039,0.30664 h 0.002 c 3.71567,0.003 7.89443,-0.23158 12.42188,-0.85547 1.13078,-0.15625 2.27952,-0.33892 3.43164,-0.53711 2.0219,-0.34833 4.04536,-0.74351 5.98047,-1.16797 l -0.0566,-0.25781 c -1.9309,0.42354 -3.95066,0.81639 -5.96875,1.16406 -1.14988,0.19781 -2.29467,0.38136 -3.42188,0.53711 -4.51454,0.62211 -8.68239,0.85651 -12.38672,0.85352 -2.24972,-0.009 -4.34211,-0.10116 -6.375,-0.30664 -1.3059,-0.1267 -2.59608,-0.29923 -3.88476,-0.50586 -3.22844,-0.51994 -6.47082,-1.29176 -10.01953,-2.29883 -0.2685,-0.0759 -0.53672,-0.15346 -0.8086,-0.23242 -3.86641,-1.12296 -8.14442,-2.54297 -12.76367,-3.93164 -1.07072,-0.32222 -2.154,-0.63709 -3.24414,-0.95313 -3.74874,-1.08421 -7.52866,-2.14247 -11.15625,-3.08789 -3.194111,-0.82831 -6.274439,-1.57799 -9.238279,-2.23242 -1.369259,-0.30419 -2.717317,-0.59024 -4.048828,-0.85742 -4.825099,-0.96366 -9.436126,-1.69255 -14.259766,-1.99805 -1.951084,-0.12571 -3.939503,-0.18126 -5.974609,-0.13867 z"
       id="path1283" />
    <path
       style="color:#000000;fill:url(#linearGradient1322);-inkscape-stroke:none"
       d="m 84.216797,139.26172 c -2.363534,-0.0672 -4.716144,-0.0478 -7.113281,0.0664 -3.877365,0.18026 -7.878981,0.61162 -12.087891,1.45508 -0.478722,0.0952 -0.961753,0.19752 -1.445313,0.30469 -3.77479,0.83751 -7.699655,2.02011 -11.488281,3.7207 -4.753083,2.13401 -9.208748,5.08573 -12.789062,8.34375 -3.580186,3.25891 -6.269646,6.79841 -7.972657,9.86328 l 0.232422,0.12696 c 1.687586,-3.03712 4.359562,-6.55584 7.917969,-9.79492 3.558278,-3.23797 7.994396,-6.17489 12.720703,-8.29688 3.768167,-1.69141 7.676298,-2.87059 11.4375,-3.70508 0.48204,-0.10683 0.961023,-0.20795 1.4375,-0.30273 4.194282,-0.84053 8.182601,-1.27143 12.048828,-1.45117 4.780515,-0.22768 9.388249,-0.0717 14.25,0.38281 1.34133,0.12687 2.70264,0.27632 4.085938,0.45312 2.995221,0.37958 6.112078,0.89137 9.341798,1.55469 3.66502,0.75618 7.4825,1.71894 11.2207,2.8418 1.08784,0.32665 2.1632,0.666 3.22266,1.02148 4.57076,1.53691 8.70831,3.30709 12.38867,4.86524 0.25789,0.10895 0.51422,0.21904 0.76953,0.32617 3.36949,1.42321 6.40415,2.68007 9.45899,3.70703 1.2191,0.4087 2.44401,0.78531 3.69531,1.11719 1.95155,0.52649 3.98207,0.93757 6.19531,1.23828 3.64308,0.4822 7.83896,0.65378 12.39844,0.18359 1.139,-0.11831 2.29379,-0.2783 3.45117,-0.4707 2.03013,-0.33668 4.05423,-0.77197 5.97266,-1.28516 l -0.0684,-0.25586 c -1.90957,0.51082 -3.9254,0.94399 -5.94727,1.2793 -1.15262,0.19161 -2.30255,0.35106 -3.43555,0.46875 -4.53651,0.46782 -8.71102,0.29816 -12.33593,-0.18164 -2.20275,-0.29929 -4.22166,-0.70892 -6.16211,-1.23242 -1.24471,-0.33013 -2.46479,-0.70403 -3.67969,-1.11133 -3.04316,-1.02304 -6.07095,-2.27838 -9.43945,-3.70117 -0.25414,-0.10664 -0.51198,-0.21541 -0.76953,-0.32422 h -0.002 c -3.67926,-1.55769 -7.82364,-3.33216 -12.40625,-4.87305 -1.06253,-0.35651 -2.14031,-0.69609 -3.23047,-1.02343 -3.74579,-1.12514 -7.56922,-2.0918 -11.24218,-2.84961 h -0.002 c -3.23627,-0.66468 -6.359352,-1.17817 -9.361325,-1.5586 -1.3863,-0.17719 -2.749682,-0.32599 -4.09375,-0.45312 -2.43582,-0.22773 -4.810294,-0.38201 -7.173828,-0.44922 z"
       id="path1284" />
    <path
       style="color:#000000;fill:url(#linearGradient1323);-inkscape-stroke:none"
       d="m 93.255859,137.52734 c -4.922706,0.10014 -9.556473,0.57477 -14.318359,1.38672 -3.850247,0.65277 -7.7945,1.52782 -11.9375,2.70313 -0.471143,0.13415 -0.945645,0.27385 -1.421875,0.41601 -3.715792,1.10828 -7.582878,2.46635 -11.357422,4.21485 -4.735244,2.1936 -9.257837,5.0034 -13.076172,8.00195 -3.818099,2.99844 -6.91873,6.16243 -9.214844,8.86133 l 0.203125,0.17187 c 2.286082,-2.6871 5.374088,-5.83866 9.175782,-8.82422 3.801657,-2.98544 8.308091,-5.78631 13.023437,-7.9707 3.759449,-1.7415 7.615065,-3.09741 11.322266,-4.20312 0.475169,-0.14185 0.947913,-0.27827 1.417969,-0.41211 4.133792,-1.1727 8.069011,-2.04799 11.910156,-2.69922 4.750705,-0.81005 9.36826,-1.28295 14.277344,-1.38281 1.354019,-0.027 2.732171,-0.0243 4.132812,0.0137 3.033552,0.0799 6.193392,0.33422 9.464842,0.8164 3.70934,0.55002 7.56993,1.41235 11.29883,2.57813 1.08493,0.33935 2.15572,0.70268 3.20313,1.0957 4.52442,1.69803 8.50548,3.85345 11.9746,5.88477 0.24396,0.14297 0.48489,0.28394 0.72461,0.42578 3.16765,1.87461 5.96256,3.6615 8.8125,5.24023 1.13681,0.629 2.28624,1.23051 3.47266,1.78711 1.84968,0.87569 3.80044,1.63771 5.9668,2.25781 3.56476,1.00962 7.77906,1.62338 12.37304,1.32227 1.14845,-0.0753 2.31091,-0.20893 3.47266,-0.39453 2.03948,-0.32503 4.06398,-0.80384 5.96289,-1.41406 l -0.0801,-0.25196 c -1.88508,0.60578 -3.89927,1.08133 -5.92578,1.4043 -1.15425,0.1844 -2.30771,0.31787 -3.44726,0.39258 -4.56001,0.29889 -8.74398,-0.31207 -12.28321,-1.31445 v 0.002 c -2.15163,-0.61589 -4.08746,-1.37383 -5.92578,-2.24414 -1.17957,-0.5534 -2.32383,-1.1523 -3.45703,-1.7793 v 0.002 c -2.84005,-1.57326 -5.63429,-3.35893 -8.80664,-5.23632 -0.24028,-0.14217 -0.48252,-0.28471 -0.72656,-0.42774 -3.47487,-2.03468 -7.47006,-4.19833 -12.01563,-5.9043 -1.05259,-0.39497 -2.12772,-0.76091 -3.21679,-1.10156 -3.7431,-1.17021 -7.61524,-2.03395 -11.3379,-2.58594 -3.28253,-0.48381 -6.4546,-0.73822 -9.498043,-0.81835 -1.404955,-0.0381 -2.784599,-0.0407 -4.142578,-0.0137 z"
       id="path1285" />
    <path
       style="color:#000000;fill:url(#linearGradient1324);-inkscape-stroke:none"
       d="m 99.480469,134.68945 c -1.425289,0.11323 -2.824352,0.27151 -4.197266,0.46485 -4.977973,0.70621 -9.622603,1.86518 -14.349609,3.3125 -3.820674,1.16606 -7.703775,2.52187 -11.775391,4.05859 -0.463064,0.17506 -0.928366,0.35308 -1.396484,0.5332 -3.651934,1.40267 -7.455547,2.95266 -11.214844,4.75391 -4.71587,2.258 -9.309983,4.9145 -13.386719,7.63086 -4.07649,2.71726 -7.6254,5.47502 -10.564453,7.7793 l 0.162109,0.20898 c 2.938342,-2.30372 6.482127,-5.0588 10.548829,-7.76953 v 0.002 c 4.066655,-2.70964 8.650195,-5.36129 13.353515,-7.61328 h 0.002 c 3.749896,-1.79674 7.544901,-3.34476 11.19336,-4.74609 h 0.002 c 0.467481,-0.17988 0.931796,-0.35631 1.394531,-0.53125 4.067776,-1.53528 7.944094,-2.89075 11.757813,-4.05469 4.718384,-1.44468 9.34973,-2.59895 14.310546,-3.30273 v 0.002 c 1.368083,-0.19266 2.762133,-0.35207 4.181641,-0.46485 3.075033,-0.24642 6.283343,-0.2734 9.597653,0.0117 3.75848,0.32718 7.66542,1.07849 11.38477,2.29102 1.08188,0.35298 2.14624,0.74424 3.18164,1.17773 4.47296,1.8747 8.28696,4.44565 11.52734,6.99024 0.22789,0.17991 0.45323,0.35847 0.67578,0.53711 2.9484,2.3663 5.48438,4.72602 8.11133,6.90429 1.04846,0.86821 2.11611,1.71522 3.23047,2.51563 1.73852,1.25599 3.60178,2.39806 5.71679,3.36719 3.47686,1.58322 7.70889,2.68103 12.3418,2.56445 1.15702,-0.0291 2.33093,-0.13863 3.49805,-0.31641 2.04903,-0.31237 4.0747,-0.83714 5.95312,-1.55273 l -0.0937,-0.24805 c -1.85957,0.70841 -3.86943,1.22944 -5.90039,1.53906 -1.15688,0.17623 -2.31791,0.28366 -3.46289,0.3125 -4.58637,0.11541 -8.77977,-0.97262 -12.22461,-2.54101 h -0.002 c -2.09632,-0.96071 -3.94484,-2.09216 -5.67188,-3.33984 -1.10721,-0.79529 -2.16968,-1.63846 -3.21484,-2.50391 h -0.002 c -2.61867,-2.17148 -5.1561,-4.53484 -8.11328,-6.9082 -0.22346,-0.17937 -0.44963,-0.35703 -0.67774,-0.53711 -3.25161,-2.55341 -7.08681,-5.14005 -11.58984,-7.02735 -1.04261,-0.43651 -2.11306,-0.83053 -3.20117,-1.18554 -3.74065,-1.21948 -7.66585,-1.97196 -11.44336,-2.30079 -3.33097,-0.28668 -6.55385,-0.26119 -9.642577,-0.0137 z"
       id="path1286" />
    <path
       style="color:#000000;fill:url(#linearGradient1325);-inkscape-stroke:none"
       d="m 111.5293,130.75391 c -3.38554,-0.0742 -6.66394,0.25887 -9.80078,0.85937 -1.44762,0.27569 -2.86501,0.60867 -4.253911,0.98242 -5.037375,1.35972 -9.695419,3.2572 -14.384765,5.39063 -3.789036,1.72015 -7.604618,3.59578 -11.59961,5.52148 -0.454577,0.21899 -0.911716,0.43917 -1.371093,0.66016 -3.583086,1.72066 -7.317678,3.4752 -11.060547,5.33203 -4.694953,2.32917 -9.367065,4.81971 -13.722657,7.23242 -4.355296,2.41266 -8.387383,4.73626 -12.021484,6.61719 l 0.121094,0.23437 c 3.642092,-1.88506 7.676402,-4.2078 12.029297,-6.61914 4.352999,-2.41128 9.020699,-4.90168 13.710937,-7.22851 3.739523,-1.85517 7.474087,-3.60874 11.058594,-5.33008 0.459421,-0.22101 0.916472,-0.44115 1.371094,-0.66016 3.9962,-1.92629 7.809793,-3.80168 11.59375,-5.51953 4.683044,-2.13056 9.326535,-4.02072 14.34375,-5.375 1.383296,-0.37224 2.795941,-0.7042 4.236331,-0.97851 3.12115,-0.5975 6.37968,-0.92924 9.74414,-0.85547 3.80946,0.0857 7.76707,0.71739 11.47461,1.98047 1.0798,0.36757 2.1369,0.7888 3.16015,1.26757 4.41639,2.06384 8.05222,5.08224 11.04688,8.18165 0.21056,0.21854 0.41862,0.43686 0.62304,0.65625 2.71308,2.89568 4.97137,5.87655 7.35743,8.70117 0.95216,1.12637 1.92875,2.23761 2.96484,3.30078 1.61896,1.6671 3.38935,3.21992 5.44727,4.5664 3.38161,2.20248 7.63444,3.82469 12.30859,3.90821 1.16655,0.0201 2.34886,-0.0596 3.52148,-0.22852 2.05979,-0.29871 4.08749,-0.8777 5.94141,-1.70703 l -0.10742,-0.24219 c -1.83008,0.81867 -3.83684,1.39221 -5.87305,1.6875 -1.15937,0.16705 -2.32707,0.24448 -3.47851,0.22461 -4.61584,-0.0825 -8.8216,-1.68571 -12.16797,-3.86523 v 0.002 c -2.03808,-1.33351 -3.79135,-2.87436 -5.40039,-4.53125 h -0.002 c -1.0299,-1.05683 -2.00328,-2.16153 -2.95312,-3.28515 -2.37994,-2.81738 -4.64032,-5.80263 -7.36524,-8.71094 -0.20557,-0.22062 -0.41551,-0.44071 -0.62695,-0.66016 -3.00933,-3.11459 -6.6694,-6.15612 -11.125,-8.23828 -1.03274,-0.48322 -2.09735,-0.90691 -3.18555,-1.27734 -3.73645,-1.27293 -7.72015,-1.90786 -11.55468,-1.99414 z"
       id="path1287" />
    <path
       style="color:#000000;fill:url(#linearGradient1326);-inkscape-stroke:none"
       d="m 114.11328,126.51367 c -3.44304,0.15459 -6.77893,0.81421 -9.96875,1.79492 -1.47006,0.45125 -2.90813,0.97081 -4.314452,1.53907 -5.100348,2.06146 -9.77252,4.7517 -14.421875,7.62109 -3.755303,2.31611 -7.498941,4.75039 -11.412109,7.09375 -0.445286,0.26775 -0.893786,0.53313 -1.34375,0.79687 -3.509865,2.06134 -7.171289,4.0359 -10.896485,5.95313 -4.672747,2.4041 -9.426855,4.71882 -14.082031,6.80664 -4.654994,2.08779 -9.208778,3.94313 -13.591797,5.37305 l 0.08203,0.25 c 4.395773,-1.43408 8.956792,-3.29065 13.617188,-5.38086 4.660414,-2.09017 9.41946,-4.4066 14.095703,-6.8125 3.728197,-1.91877 7.394628,-3.89628 10.910156,-5.96094 0.450836,-0.26425 0.897637,-0.53058 1.34375,-0.79883 3.918625,-2.34663 7.664327,-4.77986 11.416016,-7.09375 4.644835,-2.8666 9.302618,-5.54903 14.380859,-7.60156 1.400077,-0.56574 2.832987,-1.0825 4.294927,-1.53125 3.17217,-0.97529 6.48538,-1.63174 9.90234,-1.78516 3.86645,-0.1733 7.87864,0.33105 11.57422,1.64649 1.07598,0.38286 2.12488,0.8366 3.13476,1.36133 4.35788,2.26844 7.80206,5.77042 10.53321,9.46679 0.19248,0.2603 0.3818,0.52083 0.56836,0.78321 2.46083,3.46631 4.42048,7.11294 6.54882,10.63281 0.84896,1.40358 1.73099,2.7969 2.6836,4.14258 1.48919,2.10894 3.15734,4.10083 5.1543,5.85156 3.2768,2.86758 7.54603,5.05432 12.26367,5.35156 1.17806,0.0736 2.37138,0.0264 3.55078,-0.13476 2.07179,-0.28302 4.1005,-0.91777 5.92969,-1.86914 l -0.12305,-0.23438 c -1.80081,0.93662 -3.80155,1.56087 -5.84375,1.83984 -1.1626,0.15886 -2.33616,0.20525 -3.49609,0.13282 -4.64636,-0.29276 -8.86623,-2.44874 -12.10743,-5.28516 -1.97703,-1.73327 -3.63052,-3.70763 -5.11132,-5.80469 -0.9474,-1.33832 -1.82679,-2.72654 -2.67383,-4.12695 -2.12366,-3.51212 -4.08739,-7.16671 -6.56055,-10.65039 -0.18744,-0.26362 -0.37679,-0.52541 -0.57031,-0.78711 -2.74685,-3.71762 -6.21693,-7.24941 -10.62305,-9.54297 -1.02162,-0.53092 -2.08052,-0.98806 -3.16797,-1.375 -3.73242,-1.32855 -7.77823,-1.8368 -11.67578,-1.66211 z"
       id="path1288" />
    <path
       style="color:#000000;fill:url(#linearGradient1327);-inkscape-stroke:none"
       d="m 120.69336,121.89453 c -1.29157,-0.0322 -2.5844,0.027 -3.86328,0.17188 -5.1144,0.57953 -10.00627,2.45678 -14.51953,4.90234 -9.124792,4.94388 -16.755908,12.1342 -25.093753,18.25977 -0.626468,0.46046 -1.2571,0.91579 -1.892578,1.36328 v -0.002 c -12.03991,8.46783 -25.945593,14.28735 -40.441407,16.92188 l 0.04687,0.25976 c 14.533958,-2.64146 28.47521,-8.47468 40.546875,-16.96484 0.636921,-0.44851 1.268554,-0.90174 1.896485,-1.36328 8.355338,-6.13842 15.977907,-13.31813 25.062498,-18.24023 4.49273,-2.43444 9.35423,-4.29859 14.42383,-4.87305 5.06845,-0.57433 10.37091,0.20321 14.77929,2.74414 1.24081,0.71528 2.39474,1.55726 3.4668,2.49805 2.63742,2.31421 4.78153,5.22321 6.5293,8.29101 2.45807,4.31484 4.21587,8.9923 6.21679,13.55469 1.90292,4.34138 4.071,8.6498 7.23633,12.20703 1.59744,1.79549 3.47865,3.39064 5.5625,4.59766 2.04763,1.18689 4.29064,1.99853 6.65039,2.25781 3.27544,0.36024 6.66188,-0.37999 9.48828,-2.07422 l -0.13672,-0.22656 c -2.77559,1.66377 -6.10571,2.39087 -9.32226,2.03711 -2.31825,-0.25472 -4.52651,-1.05156 -6.54688,-2.22266 -2.05615,-1.19098 -3.91748,-2.76841 -5.49804,-4.54492 -3.13467,-3.52277 -5.29233,-7.80411 -7.1914,-12.13672 -1.99708,-4.55361 -3.75659,-9.24093 -6.22853,-13.58008 -1.75823,-3.08619 -3.91936,-6.01959 -6.58592,-8.35937 -1.08395,-0.95121 -2.25063,-1.80263 -3.50783,-2.52735 -3.3507,-1.9313 -7.20341,-2.85467 -11.07811,-2.95117 z"
       id="path1289" />
    <path
       style="color:#000000;fill:url(#linearGradient1328);-inkscape-stroke:none"
       d="m 120.54102,122.15625 c -1.28859,-0.0328 -2.5794,0.0241 -3.85547,0.16602 -5.10315,0.56746 -9.98596,2.41488 -14.49414,4.82031 -9.114451,4.86565 -16.753975,11.94492 -25.089848,17.97461 -0.626329,0.45351 -1.255598,0.90045 -1.890625,1.33984 -12.035959,8.33603 -25.91699,14.06181 -40.382812,16.64844 l 0.04492,0.26172 c 14.503549,-2.59337 28.420665,-8.33541 40.488281,-16.69336 0.636773,-0.44061 1.268815,-0.88731 1.896484,-1.3418 8.353311,-6.0423 15.982107,-13.11074 25.05664,-17.95508 4.48781,-2.39456 9.34155,-4.22848 14.40039,-4.79101 5.05772,-0.56241 10.34636,0.2095 14.75196,2.71875 1.23978,0.70532 2.39367,1.53692 3.46679,2.46484 2.64047,2.28443 4.79398,5.15478 6.55469,8.17969 2.476,4.25497 4.2583,8.86303 6.28125,13.35937 1.92495,4.27733 4.11083,8.52236 7.2832,12.02735 1.60148,1.76835 3.48464,3.33753 5.56641,4.52539 2.04552,1.16671 4.28509,1.96654 6.63867,2.21875 3.26913,0.35012 6.64453,-0.38647 9.46875,-2.06446 l -0.13476,-0.22656 c -2.77378,1.64802 -6.09578,2.37123 -9.30664,2.02735 -2.31242,-0.2478 -4.51668,-1.03231 -6.53516,-2.1836 -2.05423,-1.17214 -3.91548,-2.72497 -5.5,-4.47461 -3.14162,-3.47101 -5.31919,-7.68837 -7.24023,-11.95703 -2.01905,-4.48765 -3.80298,-9.10574 -6.29297,-13.38476 -1.77129,-3.04308 -3.93985,-5.93653 -6.60938,-8.2461 -1.08487,-0.93808 -2.25355,-1.78142 -3.50976,-2.49609 -3.3483,-1.90706 -7.19089,-2.81959 -11.05664,-2.91797 z"
       id="path1290" />
    <path
       style="color:#000000;fill:url(#linearGradient1329);-inkscape-stroke:none"
       d="m 120.28516,122.5918 c -1.28369,-0.0337 -2.56839,0.0213 -3.83985,0.1582 -5.08372,0.54633 -9.95206,2.34236 -14.45312,4.68359 -9.097109,4.73426 -16.747541,11.62615 -25.080081,17.49805 -0.626198,0.44058 -1.25574,0.87429 -1.890625,1.30273 -12.029352,8.11538 -25.871123,13.68559 -40.287109,16.19336 l 0.04492,0.26172 c 14.452985,-2.51421 28.329801,-8.09776 40.390625,-16.23437 0.636514,-0.42955 1.26713,-0.86717 1.894531,-1.3086 8.349844,-5.88409 15.991153,-12.76478 25.048829,-17.47851 4.48093,-2.33076 9.3191,-4.11459 14.35938,-4.65625 5.04015,-0.54254 10.30802,0.21998 14.70898,2.67578 1.23892,0.69149 2.39265,1.50505 3.4668,2.41211 2.64554,2.23379 4.81214,5.03813 6.59375,7.99219 2.50488,4.15419 4.33155,8.65084 6.39258,13.03515 1.96099,4.17125 4.17683,8.31 7.36132,11.72461 1.60752,1.72313 3.49064,3.25261 5.57032,4.40821 2.04149,1.13651 4.27297,1.91032 6.61718,2.15039 3.25566,0.33394 6.61853,-0.39434 9.43946,-2.04493 l -0.13477,-0.22851 c -2.77107,1.62141 -6.079,2.33782 -9.27734,2.00976 -2.30378,-0.23592 -4.50112,-0.99569 -6.51563,-2.11718 h -0.002 c -2.05232,-1.1404 -3.91343,-2.65256 -5.50391,-4.35743 -3.1535,-3.38137 -5.35941,-7.4935 -7.3164,-11.65625 -2.05697,-4.37567 -3.88519,-8.88275 -6.4043,-13.06054 -1.79239,-2.97194 -3.97593,-5.79844 -6.65039,-8.05664 -1.08585,-0.91694 -2.25274,-1.7409 -3.50781,-2.44141 -3.34428,-1.86615 -7.17433,-2.76405 -11.02539,-2.86523 z"
       id="path1291" />
    <path
       style="color:#000000;fill:url(#linearGradient1330);-inkscape-stroke:none"
       d="m 119.92969,123.20117 c -1.27675,-0.0352 -2.55552,0.015 -3.82031,0.14453 -5.0571,0.51816 -9.90466,2.24419 -14.39454,4.49414 -9.073861,4.54971 -16.740432,11.1809 -25.068356,16.83008 -0.625915,0.42454 -1.254396,0.84244 -1.888672,1.25391 -12.020202,7.80787 -25.80615,13.16065 -40.152343,15.55664 l 0.04297,0.26172 c 14.382178,-2.40201 28.202533,-7.76759 40.253907,-15.59571 0.635923,-0.41253 1.265294,-0.83234 1.892578,-1.25781 8.34506,-5.6608 16.003946,-12.28222 25.039056,-16.8125 4.47012,-2.24004 9.28589,-3.95296 14.30079,-4.46679 5.01481,-0.51373 10.25099,0.23268 14.64648,2.61523 1.23615,0.67074 2.39161,1.45867 3.46875,2.33789 2.65167,2.16331 4.83694,4.87419 6.64844,7.72852 2.54672,4.01352 4.43275,8.35278 6.54687,12.58203 2.0101,4.0232 4.27209,8.01272 7.47266,11.30273 1.61556,1.65879 3.49773,3.13194 5.57226,4.24219 2.03728,1.09111 4.26008,1.83275 6.5918,2.05664 3.23797,0.31068 6.5781,-0.4095 9.39453,-2.02149 l -0.13086,-0.22851 c -2.76756,1.58401 -6.05625,2.29164 -9.23828,1.98633 -2.29227,-0.22011 -4.48147,-0.95046 -6.49219,-2.02735 -2.04746,-1.09575 -3.90937,-2.55019 -5.50781,-4.1914 -3.16942,-3.25799 -5.41988,-7.2235 -7.42578,-11.23828 -2.10987,-4.22075 -3.99732,-8.56901 -6.55859,-12.60547 -1.8225,-2.87167 -4.02671,-5.60433 -6.70703,-7.79102 -1.08886,-0.88878 -2.25597,-1.68597 -3.50782,-2.36523 -3.33937,-1.81009 -7.14826,-2.68556 -10.97851,-2.79102 z"
       id="path1292" />
    <path
       style="color:#000000;fill:url(#linearGradient1331);-inkscape-stroke:none"
       d="m 119.4707,123.98633 c -1.26802,-0.037 -2.53834,0.009 -3.79492,0.1289 -5.02229,0.48095 -9.84272,2.11251 -14.31836,4.2461 -9.043655,4.31399 -16.728807,10.60909 -25.050779,15.97265 -0.625687,0.40261 -1.254922,0.79898 -1.888672,1.18946 v 0.002 c -12.008443,7.41152 -25.722057,12.48407 -39.978516,14.73633 l 0.04102,0.26172 c 14.291113,-2.25774 28.037039,-7.34298 40.076172,-14.77344 0.635448,-0.39152 1.265666,-0.78997 1.892578,-1.19336 8.33881,-5.37442 16.017512,-11.66103 25.023437,-15.95703 4.45635,-2.1244 9.24681,-3.7456 14.22851,-4.22266 4.98369,-0.47596 10.1792,0.2496 14.56641,2.53711 1.23334,0.644 2.38847,1.40065 3.46875,2.24219 2.66086,2.07298 4.87227,4.6649 6.72265,7.39062 2.59955,3.83302 4.5619,7.97086 6.74414,12 2.0752,3.83305 4.38963,7.63253 7.61133,10.75977 1.62661,1.57836 3.51076,2.97557 5.58008,4.02734 2.03008,1.03366 4.23963,1.73484 6.55469,1.9375 3.21408,0.28138 6.52904,-0.42605 9.33984,-1.98828 l -0.1289,-0.23242 c -2.76319,1.53577 -6.02759,2.23366 -9.1875,1.95703 -2.27694,-0.19933 -4.45311,-0.88786 -6.45704,-1.9082 -2.04267,-1.03823 -3.90623,-2.42273 -5.51562,-3.98438 -3.19029,-3.09674 -5.49365,-6.87036 -7.56445,-10.69531 -2.17775,-4.02084 -4.14337,-8.1665 -6.75782,-12.02148 -1.86161,-2.74227 -4.09016,-5.35616 -6.77929,-7.45117 -1.09172,-0.85046 -2.25915,-1.61558 -3.50782,-2.26758 -3.33208,-1.73737 -7.11585,-2.58228 -10.91992,-2.69336 z"
       id="path1293" />
    <path
       style="color:#000000;fill:url(#linearGradient1332);-inkscape-stroke:none"
       d="m 115.14648,125.05273 c -4.97928,0.43569 -9.76533,1.95713 -14.2246,3.94727 -9.005388,4.02513 -16.718432,9.90883 -25.033208,14.92187 -0.625165,0.37662 -1.253691,0.74969 -1.886719,1.11524 -11.994115,6.92635 -25.618938,11.6578 -39.765625,13.73437 l 0.03906,0.26172 c 14.179684,-2.08142 27.835313,-6.82394 39.859375,-13.76758 0.634571,-0.36644 1.26419,-0.7398 1.890625,-1.11718 8.331207,-5.02295 16.034907,-10.89934 25.003912,-14.90821 4.44071,-1.98185 9.19992,-3.49151 14.14062,-3.92382 4.94473,-0.43124 10.09156,0.2707 14.46875,2.4414 1.23062,0.61133 2.3863,1.32812 3.4707,2.125 2.67215,1.96183 4.91429,4.41029 6.81055,6.97852 2.66535,3.61163 4.7199,7.50109 6.98633,11.28515 2.15431,3.59986 4.53646,7.16746 7.7832,10.09766 1.63966,1.47881 3.52697,2.78642 5.58789,3.76758 2.02372,0.96406 4.2155,1.61266 6.50977,1.78906 3.18692,0.24499 6.47044,-0.4479 9.27344,-1.94922 l -0.125,-0.23242 c -2.757,1.47668 -5.99189,2.15702 -9.12696,1.91602 -2.25773,-0.1736 -4.41968,-0.80978 -6.41797,-1.76172 -2.03506,-0.96885 -3.90109,-2.26337 -5.52343,-3.72657 -3.21526,-2.90178 -5.58469,-6.44302 -7.73438,-10.03515 -2.26156,-3.77593 -4.31935,-7.67623 -7,-11.3086 -1.90774,-2.58377 -4.16734,-5.05103 -6.86719,-7.0332 -1.09559,-0.80511 -2.26243,-1.52977 -3.50781,-2.14844 l -0.002,-0.002 c -4.4308,-2.19729 -9.62411,-2.90156 -14.60938,-2.4668 z"
       id="path1294" />
    <path
       style="color:#000000;fill:url(#linearGradient1333);-inkscape-stroke:none"
       d="m 114.52148,126.16406 c -4.93005,0.3824 -9.6764,1.76822 -14.11523,3.58985 -8.961074,3.6841 -16.703471,9.08397 -25.009766,13.68359 -0.624649,0.34564 -1.25256,0.68585 -1.884765,1.02148 -11.977346,6.35434 -25.498408,10.6828 -39.515625,12.55274 l 0.03516,0.26172 c 14.048154,-1.87406 27.599239,-6.21043 39.605469,-12.58008 0.633593,-0.33637 1.262722,-0.67903 1.888672,-1.02539 8.322088,-4.60837 16.053961,-10.00003 24.980465,-13.66992 4.42116,-1.81437 9.14317,-3.19072 14.03711,-3.57032 4.89799,-0.37853 9.98706,0.29403 14.35351,2.32813 1.22597,0.57172 2.38309,1.24204 3.47266,1.98633 2.68461,1.83087 4.96287,4.10636 6.91406,6.48828 2.74324,3.35152 4.90884,6.95047 7.27344,10.44531 2.24647,3.32566 4.70972,6.6127 7.98633,9.31055 h 0.002 c 1.65557,1.36104 3.54124,2.56447 5.59375,3.46094 2.01429,0.88137 4.18779,1.46717 6.45703,1.61328 3.15354,0.20257 6.39935,-0.47013 9.19336,-1.90039 l -0.12109,-0.23633 c -2.74999,1.40773 -5.95023,2.07247 -9.05469,1.87304 -2.23476,-0.14388 -4.37943,-0.72117 -6.36914,-1.59179 -2.02748,-0.88553 -3.89282,-2.07492 -5.53125,-3.42188 -3.24538,-2.67214 -5.69402,-5.93752 -7.93555,-9.25586 -2.35939,-3.48714 -4.53031,-7.09437 -7.28906,-10.46484 -1.9628,-2.39608 -4.25932,-4.68993 -6.9707,-6.53906 -1.10043,-0.75171 -2.26778,-1.42954 -3.50781,-2.00782 -4.41754,-2.05789 -9.55229,-2.73303 -14.48829,-2.35156 z"
       id="path1295" />
    <path
       style="color:#000000;fill:url(#linearGradient1334);-inkscape-stroke:none"
       d="m 113.80078,127.44336 c -4.87265,0.32009 -9.57369,1.55467 -13.98828,3.17969 -8.910291,3.29094 -16.685867,8.1306 -24.982422,12.2539 -0.624232,0.30972 -1.251712,0.61535 -1.882812,0.91602 -11.958015,5.69348 -25.360868,9.55618 -39.228516,11.1875 l 0.03125,0.26367 c 13.896124,-1.63467 27.325185,-5.50443 39.310547,-11.21094 0.632499,-0.30133 1.261352,-0.60768 1.886719,-0.91797 8.310895,-4.13042 16.077699,-8.9651 24.955078,-12.24414 4.398196,-1.61898 9.076676,-2.84615 13.916016,-3.16406 4.84448,-0.31785 9.86863,0.32158 14.2207,2.19727 1.22253,0.5282 2.37982,1.14342 3.47461,1.82617 2.70025,1.67907 5.02084,3.7589 7.03711,5.92773 2.83126,3.04967 5.12471,6.31108 7.60352,9.47266 2.35456,3.00727 4.90937,5.978 8.2207,8.40625 1.67339,1.22514 3.5626,2.30582 5.60547,3.10547 2.00272,0.7866 4.15544,1.30131 6.39648,1.41211 3.11582,0.15211 6.31588,-0.49867 9.09961,-1.84571 l -0.11523,-0.23828 c -2.74226,1.32697 -5.90248,1.9702 -8.97266,1.82032 -2.20895,-0.10921 -4.33322,-0.61714 -6.3125,-1.39454 -2.01913,-0.79035 -3.88832,-1.85941 -5.54492,-3.07226 -3.28066,-2.40575 -5.81853,-5.35475 -8.16797,-8.35547 -2.47319,-3.15442 -4.7724,-6.4239 -7.61914,-9.49023 -2.02773,-2.18117 -4.3641,-4.27773 -7.08984,-5.97266 -1.10521,-0.68925 -2.2743,-1.30996 -3.50977,-1.84375 -4.39992,-1.89631 -9.46424,-2.5389 -14.34375,-2.21875 z"
       id="path1296" />
    <path
       style="color:#000000;fill:url(#linearGradient1335);-inkscape-stroke:none"
       d="m 112.98438,128.89453 c -4.80694,0.25078 -9.45826,1.31046 -13.845708,2.71484 -8.852183,2.84469 -16.665382,7.05172 -24.951172,10.63477 -0.62363,0.2688 -1.250971,0.53422 -1.880859,0.79492 -11.936499,4.94478 -25.20396,8.27895 -38.902344,9.63867 l 0.02734,0.26368 c 13.723989,-1.36227 27.014885,-4.703 38.976562,-9.65821 0.631311,-0.26129 1.258243,-0.52767 1.882813,-0.79687 h 0.002 c 8.299393,-3.58894 16.102782,-7.78969 24.925781,-10.625 4.372547,-1.39962 9.002237,-2.45391 13.779297,-2.70313 4.78424,-0.24818 9.7332,0.35339 14.07031,2.04883 1.21807,0.47768 2.37626,1.03312 3.47851,1.64649 2.71626,1.50847 5.08336,3.36411 7.17188,5.28906 2.93356,2.71012 5.37444,5.58986 7.98242,8.37304 2.47567,2.64786 5.13378,5.25758 8.48242,7.38086 1.69397,1.07004 3.58422,2.00948 5.61524,2.69922 1.99087,0.67871 4.11945,1.11508 6.32812,1.18555 3.07188,0.0967 6.22197,-0.53148 8.99414,-1.78516 l -0.10937,-0.24218 c -2.73382,1.23632 -5.84684,1.85901 -8.87695,1.76367 -2.17933,-0.0695 -4.28089,-0.50059 -6.25,-1.17188 -2.00899,-0.68225 -3.88057,-1.61386 -5.5586,-2.67383 -3.31935,-2.10471 -5.96132,-4.69575 -8.43164,-7.33789 h -0.002 c -2.60201,-2.77681 -5.04571,-5.66089 -7.99414,-8.38476 -2.09947,-1.93504 -4.48292,-3.80465 -7.22266,-5.32617 -1.11174,-0.61864 -2.27984,-1.17979 -3.50976,-1.66211 -4.38088,-1.71255 -9.3659,-2.31623 -14.18164,-2.06641 z"
       id="path1297" />
    <path
       style="color:#000000;fill:url(#linearGradient1336);-inkscape-stroke:none"
       d="m 112.07031,130.51562 c -4.73399,0.17248 -9.32652,1.03955 -13.683591,2.19727 -8.786784,2.34539 -16.644112,5.84341 -24.917969,8.82227 -0.622931,0.22383 -1.248258,0.44336 -1.876953,0.66015 -11.912565,4.10816 -25.027939,6.85303 -38.53711,7.91016 l 0.01953,0.26367 c 13.531402,-1.05887 26.668705,-3.808 38.603515,-7.92383 0.629904,-0.21721 1.256992,-0.43794 1.88086,-0.66211 8.285726,-2.98313 16.135085,-6.47584 24.896484,-8.81445 4.344124,-1.15428 8.917004,-2.01793 13.625004,-2.18945 4.71629,-0.17051 9.58266,0.38946 13.9043,1.88476 1.21184,0.42121 2.37069,0.9074 3.48046,1.44336 2.73656,1.31598 5.158,2.92384 7.32813,4.57813 3.04726,2.32885 5.64927,4.78194 8.40039,7.14062 2.61169,2.24632 5.38784,4.45035 8.7793,6.23242 1.71628,0.89782 3.60708,1.68322 5.625,2.25 1.9768,0.55777 4.07698,0.90549 6.25,0.93164 3.02362,0.0352 6.1196,-0.56853 8.8789,-1.71875 l -0.10156,-0.24414 c -2.7247,1.13579 -5.78707,1.73205 -8.77344,1.69727 -2.14698,-0.0258 -4.22445,-0.36769 -6.18164,-0.91992 -1.99808,-0.56122 -3.87251,-1.34029 -5.57422,-2.23047 -3.36454,-1.76793 -6.12221,-3.95754 -8.72851,-6.19922 h -0.002 c -2.74487,-2.35332 -5.35137,-4.81124 -8.41211,-7.15039 -2.17986,-1.66171 -4.6156,-3.27945 -7.37304,-4.60547 -1.11823,-0.54004 -2.28566,-1.03029 -3.50781,-1.45508 h -0.002 c -4.36035,-1.50869 -9.2563,-2.06993 -14,-1.89844 z"
       id="path1298" />
  </g>
</svg>
